<?xml version="1.0" encoding="utf-8"?>
<!-- Svg Vector Icons : http://www.onlinewebfonts.com/icon -->
<!DOCTYPE svg PUBLIC "-//W3C//DTD SVG 1.1//EN" "http://www.w3.org/Graphics/SVG/1.1/DTD/svg11.dtd">
<svg version="1.1" xmlns="http://www.w3.org/2000/svg" xmlns:xlink="http://www.w3.org/1999/xlink" x="0px" y="0px" viewBox="0 0 256 256" enable-background="new 0 0 256 256" xml:space="preserve">
<metadata> Svg Vector Icons : http://www.onlinewebfonts.com/icon </metadata>
<g><g><g><path fill="#ffffff" d="M116.6,10.3c-27.8,2.9-52.7,14.6-72.2,34.2c-18.7,18.7-29.9,41.5-33.8,69c-0.4,2.5-0.6,8.4-0.6,14.8c0,8.6,0.2,11.8,1,17.1c2.1,13.1,5.4,23.6,11.2,35.3c11.5,23.2,29.8,41.5,53.1,53.1c15.6,7.8,31,11.7,48.6,12.3c19.2,0.7,37.5-3.1,54.9-11.5c12.6-6.1,21.2-12.1,31.1-21.7c10.8-10.5,17.3-19.5,23.8-32.8c2.1-4.3,4.6-10,5.5-12.7c10.5-30.5,8.5-62.7-5.5-91.2c-6.3-12.6-12.4-21.2-22.1-31.1c-18.4-18.6-40.8-29.9-67.2-34C138.7,10.1,122.5,9.7,116.6,10.3z M135.2,52.7c23.3,2.4,43.5,14.8,56,34.2c9,13.9,13.5,31.2,12,46.8c-0.7,7.4-1.6,11.6-3.8,18.3c-7.4,22.3-25.2,40.1-47.5,47.5c-6.6,2.2-10.8,3.1-18.3,3.8c-15.6,1.5-32.9-3-46.8-12C52.6,169.1,42.1,123.9,63.1,89C78.1,64.1,106.7,49.7,135.2,52.7z"/><path fill="#ffffff" d="M123.6,63.3c-3.8,2.4-7.8,8.3-11,16.4c-1.6,3.9-5.1,17-5.1,18.9v1.2h20.4h20.4l-0.3-2.2c-0.6-4.1-3.4-14.2-5-18.3C137.2,65,130.2,59.1,123.6,63.3z"/><path fill="#ffffff" d="M105.9,65.6c-13.6,4.8-26,14.7-34,27c-1.2,2-3.6,6.5-3.6,6.9c0,0.1,6.6,0.2,14.6,0.1l14.6-0.1l0.4-2.1c2.3-12.1,6.5-24.6,10.7-31.3c0.6-1.1,1.2-1.9,1.1-1.9C109.7,64.3,108,64.9,105.9,65.6z"/><path fill="#ffffff" d="M147,66.2c3.6,5.7,7.7,17,9.7,26.6c0.7,3.2,1.3,6,1.4,6.3c0.1,0.5,3.5,0.6,14.7,0.6c8,0,14.5-0.1,14.5-0.3c0-1-4-7.6-6.7-11.3c-8.3-11-19.9-19.2-32.9-23.4l-2-0.6L147,66.2z"/><path fill="#ffffff" d="M64.2,110.1c-1.5,3.9-2.1,9.1-2.1,17.9c0,8.7,0.6,13.9,2.1,17.8l0.5,1.2h15.9h16l-0.4-4.3c-0.5-5.4-0.5-23.2,0-29.1l0.3-4.5H80.6H64.7L64.2,110.1z"/><path fill="#ffffff" d="M106.1,110c-0.2,0.6-0.5,4.8-0.8,9.5c-0.4,6.5-0.4,10.4,0,16.8c0.3,4.7,0.6,8.9,0.8,9.5l0.2,1.1h21.6h21.6l0.2-1.1c0.9-3.3,1.3-18.3,0.8-26.3c-0.3-4.7-0.6-8.9-0.8-9.5l-0.2-1h-21.6h-21.6L106.1,110z"/><path fill="#ffffff" d="M159.6,113.5c0.2,2.5,0.4,9,0.4,14.4c0,5.4-0.1,12-0.4,14.4l-0.3,4.5h15.9h15.9l0.4-1.1c1.5-3.9,2.1-9.1,2.1-17.9c0-8.7-0.6-13.9-2.1-17.9l-0.4-1.1h-15.9h-15.9L159.6,113.5z"/><path fill="#ffffff" d="M68.3,156.3c0,0.7,2.8,5.5,5.3,9.2c5.9,8.7,14.6,16.3,24,21.1c5.4,2.7,11.1,4.9,11.5,4.5c0.1-0.2-0.5-1.5-1.4-3c-3.4-5.8-6.9-15.9-9.1-26.7l-1.1-5.1L83,156.2C74.9,156.2,68.3,156.2,68.3,156.3z"/><path fill="#ffffff" d="M107.8,158.3c0.6,3.9,3.3,14.1,4.8,17.9c4.5,11.4,10,17.8,15.2,17.8c5.2,0,10.8-6.4,15.2-17.8c1.5-3.8,4.3-14,4.8-17.9l0.3-2.2h-20.4h-20.4L107.8,158.3z"/><path fill="#ffffff" d="M158.2,156.7c-0.1,0.3-0.7,3.2-1.4,6.4c-2,9.6-6.1,21-9.6,26.6l-1.2,1.9l2-0.6c4.9-1.5,11.2-4.4,15.3-7.1c7.2-4.6,14.4-11.5,19.2-18.5c2.4-3.5,5.1-8.4,5.1-9c0-0.1-6.6-0.2-14.5-0.2C161.6,156.1,158.3,156.2,158.2,156.7z"/></g></g></g>
</svg>